<svg width="100.99999999999994" height="123.72986167615946" viewBox="0 0 409.6666666666667 128" class="css-1j8o68f">
    <defs id="SvgjsDefs1336">
        <linearGradient id="SvgjsLinearGradient1343">
            <stop id="SvgjsStop1344" stop-color="#8f5e25" offset="0"></stop>
            <stop id="SvgjsStop1345" stop-color="#fbf4a1" offset="0.5"></stop>
            <stop id="SvgjsStop1346" stop-color="#8f5e25" offset="1"></stop>
        </linearGradient>
        <linearGradient id="SvgjsLinearGradient1347">
            <stop id="SvgjsStop1348" stop-color="#8f5e25" offset="0"></stop>
            <stop id="SvgjsStop1349" stop-color="#fbf4a1" offset="0.5"></stop>
            <stop id="SvgjsStop1350" stop-color="#8f5e25" offset="1"></stop>
        </linearGradient>
    </defs>
    <g id="SvgjsG1337" featurekey="symbolContainer" transform="matrix(1,0,0,1,0,0)" fill="url(#SvgjsLinearGradient1343)">
        <rect xmlns="http://www.w3.org/2000/svg" width="98" height="128" rx="10" ry="10"></rect>
    </g>
    <g id="SvgjsG1338" featurekey="uHI19F-0" transform="matrix(0.9894420149390319,0,0,0.9894420149390319,-0.307309967894124,14.774766962887599)" fill="#3c09c4">
        <path xmlns="http://www.w3.org/2000/svg" d="M67.265,61.243c-4.666-3.506-17.337-9.167-15.692-16.715c1.273-5.852,6.446-6.658,9.41-10.974  c2.477-3.607,0.55-7.661-0.731-11.454c-1.826-5.415-0.243-8.532,0.489-13.895c0.036-0.258-1.191-0.279-1.263-0.533  c-0.688,7.114-3.053,11.749-6.052,14.915c-4.385,4.63-15.596,12.43-13.891,23.641c0,0-5.362-14.868,1.95-29.003  c1.669-3.228,7.922-11.334,7.922-11.334s-1.583-0.613-1.584-0.61c-2.315,3.169-4.748,6.139-7.725,8.92  c-3.266,3.051-8.493,4.295-10.156,8.463c-1.734,4.354,0.996,9.01,2.042,13.138c1.612,6.372-0.502,13.262,1.134,19.805  c1.762,7.053,5.066,17.41,0.879,24.682c-4.18,7.262-13.447,8.591-13.473,8.595c0.73-0.107,4.099,2.749,4.98,3.11  c4.277,1.751,7.033-0.812,11.112,0.051c5.691,1.206,10.2,4.41,16.082,1.468c5.288-2.644,9.66-7.162,13.407-8.043  c3.746-0.882,9.504,1.706,10.723,4.388c0.785,1.726,0.917,2.545,0.917,2.545c1.033-1.327,1.65-8.176,1.711-9.44  C79.894,73.799,74.225,66.475,67.265,61.243z">
        </path>
    </g>
</svg>